<svg id="_1lipics_vector" data-name="1lipics_vector" xmlns="http://www.w3.org/2000/svg" width="1951.15" height="357"><defs><style>.cls-1,.cls-3{fill:#f8aa22;}.cls-1,.cls-11,.cls-12,.cls-2,.cls-20,.cls-21,.cls-4,.cls-5,.cls-6,.cls-7,.cls-8,.cls-9{isolation:isolate;}.cls-2{fill:#f9b326;}.cls-4{fill:#fccf51;}.cls-5{fill:#fbc341;}.cls-6{fill:#fdde80;}.cls-7{fill:#fdce47;}.cls-8{fill:#fab943;}.cls-10,.cls-9{fill:#fbca5a;}.cls-11{fill:#fac25b;}.cls-12{fill:#f7a52a;}.cls-13{fill:#f49b1d;}.cls-14{fill:#fbc235;}.cls-15{fill:#fbbc28;}.cls-16{fill:#f4911c;}.cls-17{fill:#e87c10;}.cls-18{fill:#f7bc40;}.cls-19{fill:#fcd557;}.cls-20{fill:#f7a31e;}.cls-21{fill:#f59c1d;}.cls-22{fill:#fde68b;}</style></defs><g id="_21" data-name="21"><path class="cls-1" d="M95.5.67l446 251.83L0 325V1z"/><path class="cls-2" d="M93 .67h124l401.33 102.74-70.66 152.92L93 .67z"/><path class="cls-3" d="M210.5.67l543-.67-135.17 103.4z"/><path class="cls-4" d="M0 325l550-74-42 106H0z"/><path class="cls-5" d="M550 251l59.33 106H508z"/><path class="cls-6" d="M550 250.42L717.33 357H606.67z"/><path class="cls-7" d="M618.33 103.4L795.67 357h-78.34L550 250.42z"/><path class="cls-8" d="M618 103.36l417 31.31L992.33 357H791.67L618 103.36z"/><path class="cls-9" d="M1035 134.67L992.57 357h17.33L1192 251.67z"/><path class="cls-11" d="M1035 134.67l12.82-6.84L1196.5 255.9z"/><path class="cls-12" d="M1044 127.83L1383.33 7.17l-188.66 246.66-150.67-126z"/><path class="cls-13" d="M991.67 1l46.67 134.67 6.67-6.83L1384.33 8.17 1639 285.33l67.67-165 48-120.33z"/><path class="cls-14" d="M1192 251.67l192-246 4 351.33h-78l-118-105.33z"/><path class="cls-15" d="M1384.33 6.33l253.34 277.34 8.66 73.33h-262V6.33z"/><path class="cls-16" d="M1638.67 283L1748 0h114l16 29-239.33 254z"/><path class="cls-17" d="M1862 0l16 29 23.33-29H1862z"/><path class="cls-18" d="M1878 29l23.33-29h49.82v357h-21.65L1878 29z"/><path class="cls-19" d="M1637.67 283.67L1879.5 27l50 330H1647z"/><path class="cls-20" d="M620.33 103.36L874.67 0l117 1 46.67 134.67z"/><path class="cls-21" d="M620.33 103.36h-2L750.33 0h124.34z"/><path class="cls-22" d="M1009.91 357L1192 251.67 1310 357z"/></g></svg>